# xmcd
#
# Track frame offsets:
#	150
#	21072
#	37872
#	55091
#	74475
#	90856
#	106670
#	124759
#	141189
#	158664
#	174512
#	194745
#	211144
#	230560
#	249607
#	278348
#
# Disc length: 3720 seconds
#
# Revision: 1
# Processed by: cddbd v1.5.1PL2 Copyright (c) Steve Scherf et al.
# Submitted via: audiograbber 1.83.01
#
DISCID=cf0e8610
DTITLE=Sound Choice - SC8921
DYEAR=2005
DGENRE=Karaoke
TTITLE0=Notorious Cherry Bombs, The - It's Hard To Kiss The Lips At NightThat C
TTITLE0=hew Your A$$ Out All Da Long
TTITLE1=Keith, Toby - Stays In Mexico
TTITLE2=Clark, Terri - Girls Lie Too
TTITLE3=Chesney, Kenny - Big Star
TTITLE4=Shelton, Blake - Some Beach
TTITLE5=Paisley, Brad - I'm Gonna Miss Her
TTITLE6=Evans, Sara - Suds In The Bucket
TTITLE7=Big and Rich - Save A Horse (Ride A Cowboy)
TTITLE8=Paisley, Brad - Celebrity (Radio Version)
TTITLE9=Messina, Jo Dee - My Give A Damn's Busted
TTITLE10=Keith, Toby - Who's Your Daddy?
TTITLE11=Wilson, Gretchen - Homewrecker
TTITLE12=Adkins, Trace - Honky Tonk Badonkadonk
TTITLE13=McGraw, Tim - Do You Want Fries With That
TTITLE14=Chesney, Kenny - No Shoes, No Shirt, No Problems
TTITLE15=Data - Data Track
EXTD=
EXTT0=
EXTT1=
EXTT2=
EXTT3=
EXTT4=
EXTT5=
EXTT6=
EXTT7=
EXTT8=
EXTT9=
EXTT10=
EXTT11=
EXTT12=
EXTT13=
EXTT14=
EXTT15=
PLAYORDER=
